<?xml version="1.0" encoding="utf-8"?>
<!-- Generator: Adobe Illustrator 19.2.1, SVG Export Plug-In . SVG Version: 6.00 Build 0)  -->
<svg version="1.1" id="Layer_1" xmlns="http://www.w3.org/2000/svg" xmlns:xlink="http://www.w3.org/1999/xlink" x="0px" y="0px"
	 viewBox="0 0 213 330" style="enable-background:new 0 0 213 330;" preserveAspectRatio="xMinYMid" xml:space="preserve">
<style type="text/css">
	.st0{filter:url(#Adobe_OpacityMaskFilter);}
	.st1{fill:#FFFFFF;}
	.st2{mask:url(#mask-2);}
	.st3{fill:none;stroke:#33C8AF;stroke-width:3;}
	.st4{fill:none;stroke:#21A58F;stroke-width:3;}
	.st5{fill:none;stroke:#21A58F;stroke-width:6;}
	.st6{fill:#33C8AF;}
	.st7{fill:#21A58F;}
	.st8{clip-path:url(#SVGID_2_);fill:none;stroke:#33C8AF;stroke-width:3;stroke-miterlimit:10;}
	.st9{clip-path:url(#SVGID_2_);fill:none;stroke:#21A58F;stroke-width:3;stroke-miterlimit:10;}
	.st10{clip-path:url(#SVGID_4_);}
	.st11{clip-path:url(#SVGID_6_);fill:none;stroke:#21A58F;stroke-width:6;stroke-miterlimit:10;}
	.st12{clip-path:url(#SVGID_8_);}
	.st13{clip-path:url(#SVGID_10_);fill:#33C8AF;}
	.st14{clip-path:url(#SVGID_12_);}
	.st15{clip-path:url(#SVGID_14_);fill:#33C8AF;}
	.st16{clip-path:url(#SVGID_16_);fill:none;stroke:#33C8AF;stroke-width:3;stroke-miterlimit:10;}
	.st17{clip-path:url(#SVGID_18_);}
	.st18{clip-path:url(#SVGID_20_);fill:#33C8AF;}
	.st19{clip-path:url(#SVGID_22_);}
	.st20{clip-path:url(#SVGID_24_);fill:#33C8AF;}
	.st21{clip-path:url(#SVGID_26_);}
	.st22{clip-path:url(#SVGID_28_);fill:#33C8AF;}
	.st23{clip-path:url(#SVGID_30_);fill:none;stroke:#33C8AF;stroke-width:3;stroke-miterlimit:10;}
	.st24{clip-path:url(#SVGID_32_);}
	.st25{clip-path:url(#SVGID_34_);fill:#33C8AF;}
	.st26{clip-path:url(#SVGID_36_);}
	.st27{clip-path:url(#SVGID_38_);fill:#33C8AF;}
	.st28{clip-path:url(#SVGID_40_);}
	.st29{clip-path:url(#SVGID_42_);fill:#33C8AF;}
	.st30{clip-path:url(#SVGID_44_);fill:none;stroke:#33C8AF;stroke-width:3;stroke-miterlimit:10;}
	.st31{clip-path:url(#SVGID_44_);fill:none;stroke:#21A58F;stroke-width:3;stroke-miterlimit:10;}
	.st32{clip-path:url(#SVGID_46_);}
	.st33{clip-path:url(#SVGID_48_);fill:#21A58F;}
	.st34{clip-path:url(#SVGID_50_);}
	.st35{clip-path:url(#SVGID_52_);fill:#33C8AF;}
	.st36{clip-path:url(#SVGID_54_);}
	.st37{clip-path:url(#SVGID_56_);fill:#21A58F;}
	.st38{clip-path:url(#SVGID_58_);}
	.st39{clip-path:url(#SVGID_60_);fill:#33C8AF;}
	.st40{clip-path:url(#SVGID_62_);}
	.st41{clip-path:url(#SVGID_64_);fill:#33C8AF;}
	.st42{clip-path:url(#SVGID_66_);}
	.st43{clip-path:url(#SVGID_68_);fill:#33C8AF;}
</style>
<title>Slice 1</title>
<desc>Created with Sketch.</desc>
<g id="Page-1">
	<defs>
		<filter id="Adobe_OpacityMaskFilter" filterUnits="userSpaceOnUse" x="-68.1" y="22" width="266.1" height="329.1">
			<feColorMatrix  type="matrix" values="1 0 0 0 0  0 1 0 0 0  0 0 1 0 0  0 0 0 1 0"/>
		</filter>
	</defs>
	<mask maskUnits="userSpaceOnUse" x="-68.1" y="22" width="266.1" height="329.1" id="mask-2">
		<g class="st0">
			<rect id="path-1" x="178.1" y="57.9" class="st1" width="14.9" height="15.1"/>
		</g>
	</mask>
	<g id="Illust-Left" transform="translate(-67.000000, 22.000000)" class="st2">
		<path id="Path-74" class="st3" d="M148.1,328l80.9-82.4c0,0,11.4-10.9,0.9-21.5c-10.5-10.6-22.5,2.3-22.5,2.3
			s-20.1,21.3-24.1,25.2c-4,3.9-12.5,12.8-12.5,12.8s-12.7,18.1-25.9,5.8c-13.2-12.3,4.5-25.6,4.5-25.6l76.2-75.6"/>

			<g id="Group-3" transform="translate(125.000000, 224.000000) scale(-1, -1) translate(-125.000000, -224.000000) translate(21.000000, 121.000000)">
			<path id="Path-68" class="st4" d="M207,0L1,206"/>
		</g>
		<g id="Rectangle-33">
			<rect id="path-1_1_" x="178.1" y="57.9" class="st5" width="14.9" height="15.1"/>
		</g>
		<path id="Shape" class="st6" d="M233.9,160.4c-3.5-3.5-9.3-3.4-12.9,0.2c-1.5,1.5-2.4,3.5-2.6,5.5l2,0c0.2-1.5,0.9-2.9,2-4
			c2.8-2.8,7.3-2.9,10-0.1c2.7,2.7,2.7,7.2-0.1,10c-1.1,1.1-2.6,1.8-4,2l0,2c2-0.2,3.9-1.1,5.5-2.6
			C237.3,169.7,237.4,163.9,233.9,160.4L233.9,160.4z M217.4,157.3c-2.6,2.6-4,5.9-4.2,9.2l2.1,0c0.2-2.8,1.4-5.6,3.6-7.8
			c4.9-4.9,12.7-4.9,17.6,0s4.9,12.7,0,17.6c-2.2,2.2-4.9,3.3-7.8,3.6l0,2.1c3.4-0.2,6.7-1.6,9.2-4.2c5.7-5.7,5.7-14.9,0-20.5
			S223.1,151.6,217.4,157.3z"/>
		<path id="Shape_1_" class="st6" d="M120,141h-19c-1.6,0-3,1.3-3,2.9v11.2c0,1.6,1.3,2.9,3,2.9h2.6v4.9c0,0.6,0.5,1.1,1.1,1.1
			c0.3,0,0.6-0.1,0.8-0.3h0l5.8-5.7h8.7c1.6,0,3-1.3,3-2.9v-11.2C123,142.3,121.7,141,120,141L120,141z M104.5,151
			c-0.8,0-1.5-0.7-1.5-1.5s0.7-1.5,1.5-1.5s1.5,0.7,1.5,1.5C106,150.3,105.3,151,104.5,151L104.5,151z M110.5,151
			c-0.8,0-1.5-0.7-1.5-1.5s0.7-1.5,1.5-1.5s1.5,0.7,1.5,1.5C112,150.3,111.3,151,110.5,151L110.5,151z M116.5,151
			c-0.8,0-1.5-0.7-1.5-1.5s0.7-1.5,1.5-1.5s1.5,0.7,1.5,1.5C118,150.3,117.3,151,116.5,151L116.5,151z"/>

			<g id="Group-3_1_" transform="translate(86.000000, 218.000000) scale(-1, -1) translate(-86.000000, -218.000000) translate(0.000000, 132.000000)">
			<path id="Path-68_1_" class="st3" d="M172,1L12,161"/>
			<circle id="Oval-1" class="st3" cx="7" cy="165" r="7"/>
		</g>

			<g id="Group-4" transform="translate(86.000000, 37.000000) rotate(-180.000000) translate(-86.000000, -37.000000) translate(49.000000, 0.000000)">
			<circle id="Oval-3" class="st6" cx="23.5" cy="50.5" r="3.5"/>
			<circle id="Oval-3_1_" class="st6" cx="13.5" cy="60.5" r="3.5"/>
			<circle id="Oval-3_2_" class="st6" cx="3.5" cy="70.5" r="3.5"/>
			<path id="Path-77" class="st3" d="M74,0L26,48"/>
		</g>

			<g id="Group-4_1_" transform="translate(228.000000, 291.000000) rotate(-180.000000) translate(-228.000000, -291.000000) translate(191.000000, 254.000000)">
			<circle id="Oval-3_3_" class="st6" cx="23.5" cy="50.5" r="3.5"/>
			<circle id="Oval-3_4_" class="st6" cx="13.5" cy="60.5" r="3.5"/>
			<circle id="Oval-3_5_" class="st6" cx="3.5" cy="70.5" r="3.5"/>
			<path id="Path-77_1_" class="st3" d="M74,0L26,48"/>
		</g>
		<path id="Path-74_1_" class="st4" d="M41,127l65.3-66.2c0,0,10.2-11.8,21.2-1.7s0,20.9,0,20.9l-17.8,18.5c0,0-11.2,10.7,0,21.4
			s24-2.4,24-2.4L180,70.6"/>
		<path id="Shape_2_" class="st7" d="M256.8,103.7l-12.5-12.5c-0.7-0.7-1.7-0.6-2.4,0l-23.1,23.1c-0.7,0.7-0.7,1.7,0,2.4l12.5,12.5
			c0.7,0.7,1.7,0.6,2.4,0l23.1-23.1C257.4,105.4,257.4,104.3,256.8,103.7L256.8,103.7z M249.9,99.4c0.2,0.2,0.2,0.5,0,0.7
			c-0.2,0.2-0.5,0.2-0.7,0c-0.2-0.2-0.2-0.5,0-0.7C249.4,99.2,249.7,99.2,249.9,99.4L249.9,99.4z M248.9,98.4c0.2,0.2,0.2,0.5,0,0.7
			c-0.2,0.2-0.5,0.2-0.7,0c-0.2-0.2-0.2-0.5,0-0.7C248.4,98.2,248.7,98.2,248.9,98.4L248.9,98.4z M228.3,120.2
			c-0.6-0.6-0.6-1.5,0-2.1c0.6-0.6,1.5-0.6,2.1,0c0.6,0.6,0.6,1.5,0,2.1C229.8,120.8,228.9,120.8,228.3,120.2L228.3,120.2z
			 M236.8,123l-12-12l17-17l12,12L236.8,123L236.8,123z"/>
		<path id="Oval-18" class="st6" d="M227.5,171c1.9,0,3.5-1.6,3.5-3.5s-1.6-3.5-3.5-3.5s-3.5,1.6-3.5,3.5S225.6,171,227.5,171z"/>

			<ellipse id="Oval-3_6_" transform="matrix(0.342 -0.9397 0.9397 0.342 -175.9317 287.2508)" class="st7" cx="117.2" cy="269.3" rx="8" ry="8"/>
		<path id="Path" class="st6" d="M141.7,278c-3.1-1.1-6.6,0.6-7.7,3.6c-1.1,3.1,0.5,6.5,3.6,7.6c3,1.1,6.6-0.4,7.7-3.5
			C146.4,282.7,144.7,279.1,141.7,278L141.7,278z"/>
		<path id="Path_1_" class="st6" d="M92.7,179c-3.1-1.1-6.6,0.6-7.7,3.6c-1.1,3.1,0.5,6.5,3.6,7.6c3,1.1,6.6-0.4,7.7-3.5
			C97.4,183.7,95.7,180.1,92.7,179L92.7,179z"/>
		<path id="Path_2_" class="st6" d="M107.4,285.4c-2.1-0.8-4.4,0.4-5.1,2.4c-0.8,2.1,0.3,4.3,2.4,5.1c2,0.7,4.4-0.3,5.1-2.4
			C110.5,288.5,109.4,286.1,107.4,285.4L107.4,285.4z"/>
	</g>
</g>
<g>
	<g>
		<defs>
			<rect id="SVGID_1_" x="0" y="22" width="197" height="308"/>
		</defs>
		<clipPath id="SVGID_2_">
			<use xlink:href="#SVGID_1_"  style="overflow:visible;"/>
		</clipPath>
		<path class="st8" d="M80.1,350l80.9-82.4c0,0,11.4-10.9,0.9-21.5c-10.5-10.6-22.5,2.3-22.5,2.3s-20.1,21.3-24.1,25.2
			c-4,3.9-12.5,12.8-12.5,12.8s-12.7,18.1-25.9,5.8c-13.2-12.3,4.5-25.6,4.5-25.6l76.2-75.6"/>
		<line class="st9" x1="-46" y1="349" x2="160" y2="143"/>
	</g>
	<g>
		<defs>
			<rect id="SVGID_3_" x="110" y="80" width="15.1" height="14.9"/>
		</defs>
		<clipPath id="SVGID_4_">
			<use xlink:href="#SVGID_3_"  style="overflow:visible;"/>
		</clipPath>
		<g class="st10">
			<defs>
				<rect id="SVGID_5_" x="0" y="22" width="197" height="308"/>
			</defs>
			<clipPath id="SVGID_6_">
				<use xlink:href="#SVGID_5_"  style="overflow:visible;"/>
			</clipPath>
			<rect x="110" y="80" class="st11" width="15.1" height="14.9"/>
		</g>
	</g>
	<g>
		<defs>
			<path id="SVGID_7_" d="M149.4,179.3c-2.6,2.6-4,5.9-4.2,9.2l2.1,0c0.2-2.8,1.4-5.6,3.6-7.8c4.9-4.9,12.7-4.9,17.6,0
				c4.9,4.9,4.9,12.7,0,17.6c-2.2,2.2-4.9,3.3-7.8,3.6l0,2.1c3.4-0.2,6.7-1.6,9.2-4.2c5.7-5.7,5.7-14.9,0-20.5
				C164.3,173.6,155.1,173.6,149.4,179.3z M165.9,182.4c-3.5-3.5-9.3-3.4-12.9,0.2c-1.5,1.5-2.4,3.5-2.6,5.5l2,0
				c0.2-1.5,0.9-2.9,2-4c2.8-2.8,7.3-2.9,10-0.1c2.7,2.7,2.7,7.2-0.1,10c-1.1,1.1-2.6,1.8-4,2l0,2c2-0.2,3.9-1.1,5.5-2.6
				C169.3,191.7,169.4,185.9,165.9,182.4z"/>
		</defs>
		<clipPath id="SVGID_8_">
			<use xlink:href="#SVGID_7_"  style="overflow:visible;"/>
		</clipPath>
		<g class="st12">
			<defs>
				<rect id="SVGID_9_" x="0" y="22" width="197" height="308"/>
			</defs>
			<clipPath id="SVGID_10_">
				<use xlink:href="#SVGID_9_"  style="overflow:visible;"/>
			</clipPath>

				<rect x="144.5" y="168.3" transform="matrix(0.7071 -0.7071 0.7071 0.7071 -85.4677 169.1719)" class="st13" width="34" height="39"/>
		</g>
	</g>
	<g>
		<defs>
			<path id="SVGID_11_" d="M48.5,173c-0.8,0-1.5-0.7-1.5-1.5s0.7-1.5,1.5-1.5s1.5,0.7,1.5,1.5C50,172.3,49.3,173,48.5,173z
				 M42.5,173c-0.8,0-1.5-0.7-1.5-1.5s0.7-1.5,1.5-1.5s1.5,0.7,1.5,1.5C44,172.3,43.3,173,42.5,173z M36.5,173
				c-0.8,0-1.5-0.7-1.5-1.5s0.7-1.5,1.5-1.5s1.5,0.7,1.5,1.5C38,172.3,37.3,173,36.5,173z M52,163H33c-1.6,0-3,1.3-3,2.9v11.2
				c0,1.6,1.3,2.9,3,2.9h2.6v4.9c0,0.6,0.5,1.1,1.1,1.1c0.3,0,0.6-0.1,0.8-0.3h0l5.8-5.7H52c1.6,0,3-1.3,3-2.9v-11.2
				C55,164.3,53.7,163,52,163z"/>
		</defs>
		<clipPath id="SVGID_12_">
			<use xlink:href="#SVGID_11_"  style="overflow:visible;"/>
		</clipPath>
		<g class="st14">
			<defs>
				<rect id="SVGID_13_" x="0" y="22" width="197" height="308"/>
			</defs>
			<clipPath id="SVGID_14_">
				<use xlink:href="#SVGID_13_"  style="overflow:visible;"/>
			</clipPath>
			<rect x="25" y="158" class="st15" width="35" height="33"/>
		</g>
	</g>
	<g>
		<defs>
			<rect id="SVGID_15_" x="0" y="22" width="197" height="308"/>
		</defs>
		<clipPath id="SVGID_16_">
			<use xlink:href="#SVGID_15_"  style="overflow:visible;"/>
		</clipPath>
		<line class="st16" x1="-68" y1="325" x2="92" y2="165"/>
		<circle class="st16" cx="97" cy="161" r="7"/>
	</g>
	<g>
		<defs>
			<circle id="SVGID_17_" cx="31.5" cy="45.5" r="3.5"/>
		</defs>
		<clipPath id="SVGID_18_">
			<use xlink:href="#SVGID_17_"  style="overflow:visible;"/>
		</clipPath>
		<g class="st17">
			<defs>
				<rect id="SVGID_19_" x="0" y="22" width="197" height="308"/>
			</defs>
			<clipPath id="SVGID_20_">
				<use xlink:href="#SVGID_19_"  style="overflow:visible;"/>
			</clipPath>
			<rect x="23" y="37" class="st18" width="17" height="17"/>
		</g>
	</g>
	<g>
		<defs>
			<circle id="SVGID_21_" cx="41.5" cy="35.5" r="3.5"/>
		</defs>
		<clipPath id="SVGID_22_">
			<use xlink:href="#SVGID_21_"  style="overflow:visible;"/>
		</clipPath>
		<g class="st19">
			<defs>
				<rect id="SVGID_23_" x="0" y="22" width="197" height="308"/>
			</defs>
			<clipPath id="SVGID_24_">
				<use xlink:href="#SVGID_23_"  style="overflow:visible;"/>
			</clipPath>
			<rect x="33" y="27" class="st20" width="17" height="17"/>
		</g>
	</g>
	<g>
		<defs>
			<circle id="SVGID_25_" cx="51.5" cy="25.5" r="3.5"/>
		</defs>
		<clipPath id="SVGID_26_">
			<use xlink:href="#SVGID_25_"  style="overflow:visible;"/>
		</clipPath>
		<g class="st21">
			<defs>
				<rect id="SVGID_27_" x="0" y="22" width="197" height="308"/>
			</defs>
			<clipPath id="SVGID_28_">
				<use xlink:href="#SVGID_27_"  style="overflow:visible;"/>
			</clipPath>
			<rect x="43" y="17" class="st22" width="17" height="17"/>
		</g>
	</g>
	<g>
		<defs>
			<rect id="SVGID_29_" x="0" y="22" width="197" height="308"/>
		</defs>
		<clipPath id="SVGID_30_">
			<use xlink:href="#SVGID_29_"  style="overflow:visible;"/>
		</clipPath>
		<line class="st23" x1="-19" y1="96" x2="29" y2="48"/>
	</g>
	<g>
		<defs>
			<circle id="SVGID_31_" cx="173.5" cy="299.5" r="3.5"/>
		</defs>
		<clipPath id="SVGID_32_">
			<use xlink:href="#SVGID_31_"  style="overflow:visible;"/>
		</clipPath>
		<g class="st24">
			<defs>
				<rect id="SVGID_33_" x="0" y="22" width="197" height="308"/>
			</defs>
			<clipPath id="SVGID_34_">
				<use xlink:href="#SVGID_33_"  style="overflow:visible;"/>
			</clipPath>
			<rect x="165" y="291" class="st25" width="17" height="17"/>
		</g>
	</g>
	<g>
		<defs>
			<circle id="SVGID_35_" cx="183.5" cy="289.5" r="3.5"/>
		</defs>
		<clipPath id="SVGID_36_">
			<use xlink:href="#SVGID_35_"  style="overflow:visible;"/>
		</clipPath>
		<g class="st26">
			<defs>
				<rect id="SVGID_37_" x="0" y="22" width="197" height="308"/>
			</defs>
			<clipPath id="SVGID_38_">
				<use xlink:href="#SVGID_37_"  style="overflow:visible;"/>
			</clipPath>
			<rect x="175" y="281" class="st27" width="17" height="17"/>
		</g>
	</g>
	<g>
		<defs>
			<circle id="SVGID_39_" cx="193.5" cy="279.5" r="3.5"/>
		</defs>
		<clipPath id="SVGID_40_">
			<use xlink:href="#SVGID_39_"  style="overflow:visible;"/>
		</clipPath>
		<g class="st28">
			<defs>
				<rect id="SVGID_41_" x="0" y="22" width="197" height="308"/>
			</defs>
			<clipPath id="SVGID_42_">
				<use xlink:href="#SVGID_41_"  style="overflow:visible;"/>
			</clipPath>
			<rect x="185" y="271" class="st29" width="17" height="17"/>
		</g>
	</g>
	<g>
		<defs>
			<rect id="SVGID_43_" x="0" y="22" width="197" height="308"/>
		</defs>
		<clipPath id="SVGID_44_">
			<use xlink:href="#SVGID_43_"  style="overflow:visible;"/>
		</clipPath>
		<line class="st30" x1="123" y1="350" x2="171" y2="302"/>
		<path class="st31" d="M-27,149l65.3-66.2c0,0,10.2-11.8,21.2-1.7c11,10,0,20.9,0,20.9l-17.8,18.5c0,0-11.2,10.7,0,21.4
			c11.2,10.7,24-2.4,24-2.4L112,92.6"/>
	</g>
	<g>
		<defs>
			<path id="SVGID_45_" d="M168.8,145l-12-12l17-17l12,12L168.8,145z M160.3,142.2c-0.6-0.6-0.6-1.5,0-2.1c0.6-0.6,1.5-0.6,2.1,0
				c0.6,0.6,0.6,1.5,0,2.1C161.8,142.8,160.9,142.8,160.3,142.2z M180.9,120.4c0.2,0.2,0.2,0.5,0,0.7c-0.2,0.2-0.5,0.2-0.7,0
				c-0.2-0.2-0.2-0.5,0-0.7C180.4,120.2,180.7,120.2,180.9,120.4z M181.9,121.4c0.2,0.2,0.2,0.5,0,0.7c-0.2,0.2-0.5,0.2-0.7,0
				c-0.2-0.2-0.2-0.5,0-0.7C181.4,121.2,181.7,121.2,181.9,121.4z M188.8,125.7l-12.5-12.5c-0.7-0.7-1.7-0.6-2.4,0l-23.1,23.1
				c-0.7,0.7-0.7,1.7,0,2.4l12.5,12.5c0.7,0.7,1.7,0.6,2.4,0l23.1-23.1C189.4,127.4,189.4,126.3,188.8,125.7z"/>
		</defs>
		<clipPath id="SVGID_46_">
			<use xlink:href="#SVGID_45_"  style="overflow:visible;"/>
		</clipPath>
		<g class="st32">
			<defs>
				<rect id="SVGID_47_" x="0" y="22" width="197" height="308"/>
			</defs>
			<clipPath id="SVGID_48_">
				<use xlink:href="#SVGID_47_"  style="overflow:visible;"/>
			</clipPath>

				<rect x="146.8" y="116.7" transform="matrix(0.7071 -0.7071 0.7071 0.7071 -43.7171 158.795)" class="st33" width="46" height="31"/>
		</g>
	</g>
	<g>
		<defs>
			<circle id="SVGID_49_" cx="159.5" cy="189.5" r="3.5"/>
		</defs>
		<clipPath id="SVGID_50_">
			<use xlink:href="#SVGID_49_"  style="overflow:visible;"/>
		</clipPath>
		<g class="st34">
			<defs>
				<rect id="SVGID_51_" x="0" y="22" width="197" height="308"/>
			</defs>
			<clipPath id="SVGID_52_">
				<use xlink:href="#SVGID_51_"  style="overflow:visible;"/>
			</clipPath>
			<rect x="151" y="181" class="st35" width="17" height="17"/>
		</g>
	</g>
	<g>
		<defs>
			<ellipse id="SVGID_53_" transform="matrix(0.342 -0.9397 0.9397 0.342 -241.3629 237.838)" cx="49.2" cy="291.3" rx="8" ry="8"/>
		</defs>
		<clipPath id="SVGID_54_">
			<use xlink:href="#SVGID_53_"  style="overflow:visible;"/>
		</clipPath>
		<g class="st36">
			<defs>
				<rect id="SVGID_55_" x="0" y="22" width="197" height="308"/>
			</defs>
			<clipPath id="SVGID_56_">
				<use xlink:href="#SVGID_55_"  style="overflow:visible;"/>
			</clipPath>

				<rect x="36.2" y="278.3" transform="matrix(0.342 -0.9397 0.9397 0.342 -241.3629 237.838)" class="st37" width="26" height="26"/>
		</g>
	</g>
	<g>
		<defs>
			<path id="SVGID_57_" d="M73.7,300.1c-3.1-1.1-6.6,0.6-7.7,3.6c-1.1,3.1,0.5,6.5,3.6,7.6c3,1.1,6.6-0.4,7.7-3.5
				C78.4,304.8,76.7,301.2,73.7,300.1z"/>
		</defs>
		<clipPath id="SVGID_58_">
			<use xlink:href="#SVGID_57_"  style="overflow:visible;"/>
		</clipPath>
		<g class="st38">
			<defs>
				<rect id="SVGID_59_" x="0" y="22" width="197" height="308"/>
			</defs>
			<clipPath id="SVGID_60_">
				<use xlink:href="#SVGID_59_"  style="overflow:visible;"/>
			</clipPath>

				<rect x="60.7" y="294.7" transform="matrix(0.342 -0.9397 0.9397 0.342 -240.0994 268.5156)" class="st39" width="22" height="22"/>
		</g>
	</g>
	<g>
		<defs>
			<path id="SVGID_61_" d="M24.7,201.1c-3.1-1.1-6.6,0.6-7.7,3.6c-1.1,3.1,0.5,6.5,3.6,7.6c3,1.1,6.6-0.4,7.7-3.5
				C29.4,205.8,27.7,202.2,24.7,201.1z"/>
		</defs>
		<clipPath id="SVGID_62_">
			<use xlink:href="#SVGID_61_"  style="overflow:visible;"/>
		</clipPath>
		<g class="st40">
			<defs>
				<rect id="SVGID_63_" x="0" y="22" width="197" height="308"/>
			</defs>
			<clipPath id="SVGID_64_">
				<use xlink:href="#SVGID_63_"  style="overflow:visible;"/>
			</clipPath>

				<rect x="11.7" y="195.7" transform="matrix(0.342 -0.9397 0.9397 0.342 -179.3107 157.3301)" class="st41" width="22" height="22"/>
		</g>
	</g>
	<g>
		<defs>
			<path id="SVGID_65_" d="M39.4,307.4c-2.1-0.8-4.4,0.4-5.1,2.4c-0.8,2.1,0.3,4.3,2.4,5.1c2,0.7,4.4-0.3,5.1-2.4
				C42.5,310.5,41.4,308.1,39.4,307.4z"/>
		</defs>
		<clipPath id="SVGID_66_">
			<use xlink:href="#SVGID_65_"  style="overflow:visible;"/>
		</clipPath>
		<g class="st42">
			<defs>
				<rect id="SVGID_67_" x="0" y="22" width="197" height="308"/>
			</defs>
			<clipPath id="SVGID_68_">
				<use xlink:href="#SVGID_67_"  style="overflow:visible;"/>
			</clipPath>

				<rect x="29" y="302.1" transform="matrix(0.342 -0.9397 0.9397 0.342 -267.3511 240.4694)" class="st43" width="18" height="18"/>
		</g>
	</g>
</g>
</svg>
