<?xml version="1.0" encoding="UTF-8" standalone="no"?>
<svg width="173px" height="55px" viewBox="0 0 173 55" version="1.1" xmlns="http://www.w3.org/2000/svg" xmlns:xlink="http://www.w3.org/1999/xlink">
    <!-- Generator: Sketch 3.7.1 (28215) - http://www.bohemiancoding.com/sketch -->
    <title>Slice 1</title>
    <desc>Created with Sketch.</desc>
    <defs>
        <polygon id="path-1" points="0 56 0 0.0379655863 56.6644001 0.0379655863 56.6644001 56"></polygon>
        <polygon id="path-3" points="12.2066258 0.0484830918 0.096062657 0.0484830918 0.096062657 14.3188029 12.2066258 14.3188029"></polygon>
    </defs>
    <g id="Page-1" stroke="none" stroke-width="1" fill="none" fill-rule="evenodd">
        <path d="M37.3719688,42.9960392 C38.1864233,43.8002716 39.2691969,44.2430333 40.4209077,44.2429056 C41.5693881,44.242778 42.6491896,43.8023772 43.462675,43.00242 C43.4651301,42.9999315 43.4675206,42.9975068 43.4699112,42.9951459 C44.2841719,42.191105 44.7324255,41.1220706 44.7325547,39.9850811 C44.7325547,39.3915418 44.6092817,38.8168896 44.3764328,38.2882427 C43.4144771,38.4756459 42.5060818,38.8537704 41.6983466,39.4042395 C41.9361704,39.9165516 41.8415836,40.5440366 41.4149092,40.9654227 C40.8678692,41.505555 39.9776289,41.5049169 39.4302012,40.9645294 C36.2361517,37.8096849 31.9895008,36.0726477 27.472851,36.0726477 C26.8443397,36.0726477 26.2213201,36.1075505 25.6054075,36.1739743 C26.1136824,37.0660061 26.5439749,37.9968329 26.8945405,38.9577132 C27.0859754,38.9501201 27.2780564,38.9453983 27.4707189,38.9453983 C31.211227,38.9453983 34.7274144,40.3838793 37.3719688,42.9960392 M44.7330716,14.4050814 C44.7331362,13.2679004 44.2846887,12.1987385 43.470428,11.3946337 C42.1841378,10.1247327 40.2808365,9.82777166 38.7045187,10.5013258 C38.8944031,11.4507207 39.2771437,12.3474104 39.8341334,13.1447516 C40.3529396,12.9098116 40.9882994,13.0032899 41.4150384,13.424676 C41.96182,13.9648082 41.9611739,14.8441422 41.4140693,15.3847211 C38.2195675,18.5392466 36.4606016,22.7331996 36.4607308,27.1939327 C36.4606016,27.8146541 36.4959424,28.4299518 36.563329,29.0382307 C37.4682354,28.5352345 38.4126176,28.1097647 39.3873012,27.7632251 C39.2337268,24.0350683 40.5938,20.2566949 43.4695235,17.4166138 C44.2844303,16.6119348 44.7330716,15.54239 44.7330716,14.4050814 M13.5285316,13.4245484 C14.0754424,12.8845437 14.9658119,12.8851818 15.5132395,13.4256331 C18.7074183,16.5802862 22.9540692,18.3175148 27.4707189,18.3173872 C28.0991656,18.3173872 28.7221206,18.282612 29.3379041,18.2161882 C28.8298876,17.3244117 28.3998535,16.3939677 28.0492879,15.4335979 C27.8570777,15.441191 27.664286,15.4460404 27.4707189,15.4460404 C23.7305985,15.446168 20.2141527,14.0074956 17.5690814,11.3952718 C15.8880333,9.73525049 13.1532209,9.73480383 11.4729481,11.3939957 C10.1862056,12.66479 9.88513005,14.5450117 10.5671372,16.1017284 C11.5289637,15.9143889 12.4373589,15.5362645 13.2450942,14.9857315 C13.0073996,14.4734833 13.1019218,13.8459983 13.5285316,13.4245484 M13.5285316,40.9654227 C12.9816208,40.4252905 12.9822669,39.5459564 13.5295653,39.0053137 C16.723744,35.8507245 18.48271,31.6567076 18.48271,27.1960384 C18.48271,26.5753808 18.4473691,25.9601469 18.3802409,25.3519318 C17.4766913,25.8540985 16.5339889,26.2789302 15.5609206,26.6251508 C15.568609,26.8145321 15.5735192,27.0044876 15.5735192,27.1951451 C15.5736485,30.8890371 14.1171794,34.3620906 11.472302,36.9745696 C9.79131853,38.6345271 9.7910601,41.3357627 11.4715267,42.9960392 C12.7583985,44.2667059 14.662475,44.5635394 16.238922,43.8889643 C16.0491669,42.9394418 15.6665555,42.0426882 15.1093073,41.2452195 C14.5905658,41.4802233 13.955206,41.386745 13.5285316,40.9654227 M23.1591365,45.2817589 C23.1592657,46.4191951 23.6078424,47.4884847 24.4222323,48.2927171 C25.2344256,49.0946523 26.3133226,49.5373502 27.4613507,49.5397111 L27.4716235,49.5397111 C28.6230758,49.5397111 29.7053971,49.0968856 30.5195286,48.2929723 C30.9445878,47.8732452 31.2687286,47.3808411 31.4826472,46.8444735 C30.6681927,46.3051708 29.7552103,45.9381488 28.7898949,45.7633157 C28.5912885,46.2917073 28.0751313,46.6693213 27.4717527,46.6693213 C26.6981953,46.6693213 26.0691671,46.0470686 26.0690379,45.2826522 C26.0692964,40.8213449 24.310072,36.6273281 21.1163455,33.4732493 C20.6719684,33.034316 20.2063997,32.6239049 19.7233866,32.2408034 C19.4440196,33.2266325 19.0818244,34.1852157 18.6418407,35.1094065 C18.7826225,35.2377876 18.9218538,35.3685296 19.0581131,35.5031001 C21.7029259,38.1151324 23.1593949,41.5879307 23.1591365,45.2817589 M48.8346765,30.2055927 C49.6489372,29.4013604 50.0974492,28.3322622 50.09732,27.1950174 C50.0969324,25.3988305 48.9638934,23.8597247 47.3668364,23.2351111 C46.821347,24.039152 46.4499774,24.9404359 46.2730148,25.8933402 C46.8081022,26.0894851 47.1904552,26.5991811 47.1904552,27.1951451 C47.1904552,27.9589871 46.5602641,28.580219 45.7863191,28.5804742 C41.2690232,28.580219 37.0224369,30.3175114 33.8287104,33.4717179 C33.3842687,33.9105235 32.9687715,34.370258 32.5808622,34.8474759 C33.5807431,35.1237632 34.5531653,35.4824264 35.4905052,35.9179778 C38.0512624,33.1745016 41.7181168,31.4527144 45.7850915,31.4527144 C46.9374484,31.4527144 48.0203512,31.0097613 48.8346765,30.2055927 M27.4718819,7.72071353 C28.2451162,7.72084114 28.8743382,8.34309391 28.8744674,9.10751025 C28.8744674,13.5688176 30.6333687,17.7628344 33.8272244,20.916977 C34.271537,21.3557827 34.7370411,21.76613 35.2200541,22.1493591 C35.4992273,21.1639767 35.8613579,20.2057125 36.3011478,19.2819045 C36.1596553,19.153013 36.0199717,19.0217605 35.8830663,18.886552 C33.2382535,16.2748387 31.7818491,12.8017851 31.7818491,9.10751025 C31.7815907,6.75976945 29.8482465,4.84949428 27.4721403,4.84936667 C25.6523132,4.84949428 24.0933105,5.96861767 23.4609873,7.54575279 C24.275248,8.08486412 25.1882305,8.45201367 26.153675,8.62671917 C26.3522815,8.09845516 26.8684387,7.72084114 27.4718819,7.72071353 M8.6705552,28.4968861 C8.49346335,29.4498542 8.12209379,30.3511381 7.57647516,31.1551152 C5.9787074,30.5312035 4.84476394,28.9915873 4.84476394,27.194507 C4.84515159,24.8469576 6.77933571,22.9371291 9.15647559,22.9371291 C12.8972421,22.9368739 16.4138172,21.4982015 19.0583715,18.8861691 C19.1948893,18.7513434 19.3274013,18.6136464 19.457652,18.4742904 C20.3934412,18.9090123 21.3643129,19.2669097 22.3627077,19.5428142 C21.9747338,20.0197769 21.5591721,20.4795114 21.1148595,20.9184446 C17.9210038,24.0725872 13.6745467,25.8098159 9.15725089,25.8096883 C8.38317667,25.8098159 7.75311475,26.4312392 7.75311475,27.1950174 C7.75311475,27.7909814 8.13546775,28.3006774 8.6705552,28.4968861" id="Fill-1" fill="#50E3C2"></path>
        <g id="Group-5" transform="translate(0.000000, 0.025842)">
            <mask id="mask-2" fill="white">
                <use xlink:href="#path-1"></use>
            </mask>
            <g id="Clip-4"></g>
            <path d="M10.1010064,44.3237372 C7.66481434,41.9169743 7.66520199,38.0014143 10.1016525,35.5951618 C12.3800706,33.3446002 13.6350257,30.3527205 13.6352842,27.1706939 C12.6829551,27.3986151 11.7084008,27.5548802 10.7178235,27.6345122 C10.6038542,29.8756303 9.66593285,31.9667365 8.04703812,33.5655024 C4.47741949,37.091644 4.47690262,42.8281484 8.0461336,46.3538433 C10.4481477,48.7257034 13.8631583,49.5021156 16.9285723,48.6833351 C16.6262046,47.7740752 16.4454947,46.8219366 16.393291,45.8465082 C14.2437668,46.5095341 11.8007909,46.002199 10.1010064,44.3237372 M10.1023631,10.0146517 C12.5383614,7.60903728 16.5028024,7.60961155 18.9396405,10.015864 C21.2185755,12.2666171 24.2482611,13.5059542 27.4707383,13.5059542 C27.23944,12.5649182 27.0811492,11.6017408 27.0005178,10.6229306 C24.7312741,10.5102461 22.6139895,9.58394965 20.995224,7.98524752 C17.4248301,4.45987166 11.6162691,4.45923358 8.04639204,7.98435422 C5.64463633,10.3565972 4.8583511,13.7294088 5.68753636,16.7567017 C6.6080134,16.4583369 7.57171352,16.2797391 8.55912495,16.2281825 C7.88868273,14.1055553 8.40290164,11.6931772 10.1023631,10.0146517 M46.670764,39.95929 C46.6706994,41.6039337 46.02371,43.1501859 44.8486109,44.3147404 C44.8458328,44.3176117 44.8430546,44.3203554 44.8402764,44.3230992 C43.6599441,45.4889936 42.0905395,46.1310268 40.4210563,46.131282 C38.7517023,46.1314096 37.1820393,45.4896317 36.0014485,44.3237372 C33.7234826,42.0736222 30.6948308,40.8342213 27.4731288,40.8337747 C27.7041688,41.7744279 27.8622657,42.737031 27.9430263,43.715586 C30.2120116,43.8280152 32.32949,44.7543117 33.9483201,46.3531414 C37.5185848,49.8785173 43.3272104,49.8790277 46.8971521,46.3538433 C49.2987786,43.9817917 50.0850638,40.6090439 49.2558785,37.5816872 C48.3362414,37.8799244 47.3730582,38.0583946 46.3863574,38.1100788 C46.573399,38.7009382 46.670764,39.3226805 46.670764,39.95929 M38.0149072,5.65499003 C38.3172749,6.56437748 38.4980494,7.51677133 38.5501885,8.492455 C40.6995834,7.83019479 43.1416548,8.33752988 44.8407933,10.0150345 C46.0213195,11.1807375 46.6712808,12.730563 46.6712808,14.3792265 C46.6712808,16.0280177 46.0210611,17.5780983 44.8402764,18.7441842 C42.4890446,21.0663381 41.3129764,24.1164104 41.3122011,27.1668017 C42.2633025,26.9392634 43.2364355,26.7833812 44.225656,26.7036853 C44.3395607,24.4626948 45.2776759,22.3716524 46.8964414,20.7728227 C50.46606,17.2466811 50.4666415,11.5102405 46.8971521,7.98460945 C44.4953318,5.61262171 41.0802566,4.8360819 38.0149072,5.65499003 M2.90652886,27.1685883 C2.90698112,23.765468 5.71066619,20.997043 9.15649497,20.997043 C12.3789722,20.9967877 15.4083347,19.7575144 17.6868175,17.5076546 C16.8502022,17.003829 16.0491217,16.4337709 15.291781,15.7983099 C13.6066626,17.3034062 11.446155,18.1270361 9.15688262,18.1270361 C4.1080528,18.1275465 0.000374729196,22.1834835 -1.29216964e-05,27.1691626 C0.000245512232,30.5237252 1.85916076,33.4576036 4.61296808,35.0192973 C5.05004447,34.1652311 5.60399759,33.3657843 6.26552384,32.6395888 C4.27086617,31.6073077 2.90659347,29.5424264 2.90652886,27.1685883 M27.4720951,2.90928054 C30.9169548,2.90953577 33.7196707,5.67847126 33.7200584,9.08159156 C33.7200584,12.2645753 34.9750135,15.2568377 37.2536255,17.507208 C37.7639032,16.6803239 38.3416323,15.8886617 38.9853912,15.1401972 C37.4614063,13.475837 36.62744,11.3421072 36.62744,9.08133633 C36.6269232,4.09508299 32.5200204,0.0383165287 27.4718367,0.0379336824 C24.0752396,0.0381889132 21.1044123,1.87406429 19.523249,4.59374023 C20.3876458,5.02539937 21.1968671,5.57216762 21.932047,6.22517571 C22.9777999,4.25613364 25.068595,2.90940816 27.4720951,2.90928054 M31.8900877,49.6206703 C30.7125335,50.7834382 29.1479099,51.4250247 27.4832078,51.4280236 L27.4712552,51.4280236 C25.8019012,51.4281513 24.2324966,50.7861819 23.0518412,49.6205427 C21.8712504,48.4547121 21.220966,46.904759 21.2208368,45.2558402 C21.2210953,42.0740689 19.9667862,39.0826997 17.689208,36.8324571 C17.1790594,37.6588945 16.6015888,38.4501101 15.9581529,39.1982555 C17.4820086,40.8624881 18.3161041,42.9961541 18.3161041,45.2571164 C18.3164917,50.2433697 22.4234591,54.3000086 27.4717075,54.3003914 C30.86824,54.3002638 33.8390672,52.4643884 35.4203598,49.7447125 C34.5564798,49.3132448 33.7475816,48.7669232 33.0129185,48.1144894 C32.7221803,48.6628528 32.3459005,49.1704431 31.8900877,49.6206703 M54.9434278,27.1692902 C54.9431048,32.1549054 50.8354913,36.21097 45.7867261,36.2114167 C43.4973892,36.2114167 41.3369461,37.0350466 39.6518277,38.5401428 C38.895327,37.9055751 38.0955386,37.3361551 37.2601509,36.8329676 C39.4447575,34.6765861 42.4601646,33.3410907 45.7853047,33.3410907 C47.4550463,33.3410907 49.0247094,32.6990576 50.2052356,31.5332907 C51.3856972,30.3675239 52.0357231,28.8175709 52.0355939,27.1689073 C52.0352062,24.7962177 50.6715796,22.7320383 48.677568,21.6994382 C49.3392881,20.9729875 49.8932412,20.1732854 50.3305114,19.3190917 C53.084448,20.8807853 54.9432986,23.8147913 54.9434278,27.1692902" id="Fill-3" fill="#50E3C2" mask="url(#mask-2)"></path>
        </g>
        <g transform="translate(65.000000, 20.000000)">
            <polygon id="Fill-1" fill="#888888" points="0.0390667387 0.39812657 0.0390667387 2.18923768 1.38457303 2.18923768 1.38457303 12.3323778 -6.29094021e-05 12.3323778 -6.29094021e-05 14.1233633 4.9339215 14.1233633 4.9339215 12.3323778 3.58828939 12.3323778 3.58828939 2.18923768 4.97305114 2.18923768 4.97305114 0.39812657"></polygon>
            <polygon id="Fill-2" fill="#888888" points="10.0844275 0.39811401 14.5112363 0.39811401 21.0053739 11.9623362 21.0053739 2.18922512 19.6402398 2.18922512 19.6402398 0.39811401 24.3597032 0.39811401 24.3597032 2.18922512 23.0140711 2.18922512 23.0140711 14.1233507 19.874137 14.1233507 13.4387568 2.6564715 13.4387568 12.3323652 14.8038908 12.3323652 14.8038908 14.1233507 10.0844275 14.1233507 10.0844275 12.3323652 11.4300596 12.3323652 11.4300596 2.18922512 10.0844275 2.18922512"></polygon>
            <g id="Group-14" transform="translate(28.183412, 0.077121)">
                <g id="Group-5">
                    <mask id="mask-4" fill="white">
                        <use xlink:href="#path-3"></use>
                    </mask>
                    <g id="Clip-4"></g>
                    <path d="M12.2066258,9.43231014 C11.8557172,10.7755179 11.4460512,11.573856 10.8221157,12.2940686 C9.67137693,13.6374019 8.20873333,14.3188029 6.31717343,14.3188029 C2.57293164,14.3188029 0.096062657,11.5347932 0.096062657,7.36851304 C0.096062657,2.94926667 2.49479816,0.0484454106 6.14153038,0.0484454106 C7.19475959,0.0484454106 8.24773716,0.359942995 9.14495105,1.08028116 C9.45685587,1.33337295 9.72988267,1.58646473 10.2174305,2.15105411 L10.2174305,0.321005797 L11.9529751,0.321005797 L11.9529751,5.07134396 L10.2174305,5.07134396 C10.0027837,4.2341942 9.84701998,3.90322802 9.43735395,3.37757585 C8.71590893,2.46255169 7.64317781,1.95636812 6.43418492,1.95636812 C4.09408098,1.95636812 2.53380199,4.13685121 2.53380199,7.40757585 C2.53380199,10.4834889 4.03557523,12.371943 6.47306293,12.371943 C7.72118547,12.371943 8.85229651,11.7101362 9.4958597,10.5809575 C9.67137693,10.3083971 9.78851424,10.0358367 10.0027837,9.43231014 L12.2066258,9.43231014 Z" id="Fill-3" fill="#888888" mask="url(#mask-4)"></path>
                </g>
                <polygon id="Fill-6" fill="#888888" points="17.1310103 0.320993237 22.0453669 0.320993237 22.0453669 2.11210435 20.6802329 2.11210435 20.6802329 12.2552444 25.1851752 12.2552444 25.1851752 9.68538937 27.0768609 9.68538937 27.0768609 14.04623 17.1113825 14.04623 17.1113825 12.2552444 18.4961443 12.2552444 18.4961443 2.11210435 17.1310103 2.11210435"></polygon>
                <path d="M31.4569029,0.320993237 L36.3517576,0.320993237 L36.3517576,2.11210435 L34.9672475,2.11210435 L34.9672475,8.90651981 C34.9672475,11.1455343 36.0982327,12.3719304 38.1655615,12.3719304 C40.2912702,12.3719304 41.4223813,11.2039401 41.4223813,9.00398841 L41.4223813,2.11210435 L40.0571214,2.11210435 L40.0571214,0.320993237 L44.9522278,0.320993237 L44.9522278,2.11210435 L43.5868421,2.11210435 L43.5868421,9.0428 C43.5868421,10.6782879 43.1774278,11.8073411 42.2218339,12.780771 C41.1687305,13.8320754 39.9207338,14.3187903 38.2629453,14.3187903 C35.0061255,14.3187903 32.802535,12.2356502 32.802535,9.1402686 L32.802535,2.11210435 L31.4569029,2.11210435 L31.4569029,0.320993237 Z" id="Fill-8" fill="#888888"></path>
                <path d="M53.6108514,2.11207923 L53.6108514,12.2552193 L55.5416668,12.2552193 C59.9098441,12.2552193 60.1828709,9.23746087 60.1828709,7.09604058 C60.1828709,5.28558647 59.8125861,4.11734493 58.9545019,3.26072657 C58.1939272,2.50157681 57.1797018,2.11207923 55.9510812,2.11207923 L53.6108514,2.11207923 Z M50.0616288,0.320968116 L56.3997511,0.320968116 C58.6229693,0.320968116 62.6012341,1.78111304 62.6012341,7.19338357 C62.6012341,11.4568812 60.0464833,14.0463304 55.8536974,14.0463304 L50.1007584,14.0463304 L50.1007584,12.2552193 L51.4461389,12.2552193 L51.4461389,2.11207923 L50.0616288,2.11207923 L50.0616288,0.320968116 Z" id="Fill-10" fill="#888888"></path>
                <polygon id="Fill-12" fill="#888888" points="67.5681327 0.320993237 77.7676341 0.320993237 77.7676341 4.46780483 75.8955761 4.46780483 75.8955761 2.11210435 71.117607 2.11210435 71.117607 6.08369855 75.8370703 6.08369855 75.8370703 7.85521546 71.117607 7.85521546 71.117607 12.2552444 76.1686029 12.2552444 76.1686029 9.66579517 78.040535 9.66579517 78.040535 14.04623 67.5681327 14.04623 67.5681327 12.2552444 68.9137648 12.2552444 68.9137648 2.11210435 67.5681327 2.11210435"></polygon>
            </g>
        </g>
    </g>
</svg>