<?xml version="1.0" encoding="utf-8"?>
<!-- Generator: Adobe Illustrator 19.2.1, SVG Export Plug-In . SVG Version: 6.00 Build 0)  -->
<svg version="1.1" id="Layer_1" xmlns="http://www.w3.org/2000/svg" xmlns:xlink="http://www.w3.org/1999/xlink" x="0px" y="0px"
	 viewBox="0 0 213 330" style="enable-background:new 0 0 213 330;" preserveAspectRatio="xMaxYMid" xml:space="preserve">
<style type="text/css">
	.st0{clip-path:url(#SVGID_2_);enable-background:new    ;}
	.st1{clip-path:url(#SVGID_4_);}
	.st2{clip-path:url(#SVGID_6_);fill:none;stroke:#21A58F;stroke-width:3;stroke-miterlimit:10;}
	.st3{clip-path:url(#SVGID_8_);}
	.st4{clip-path:url(#SVGID_10_);fill:#33C8AF;}
	.st5{clip-path:url(#SVGID_12_);}
	.st6{clip-path:url(#SVGID_14_);fill:#21A58F;}
	.st7{clip-path:url(#SVGID_16_);fill:none;stroke:#33C8AF;stroke-width:3;stroke-miterlimit:10;}
	.st8{clip-path:url(#SVGID_18_);}
	.st9{clip-path:url(#SVGID_20_);fill:none;stroke:#33C8AF;stroke-width:6;stroke-miterlimit:10;}
	.st10{clip-path:url(#SVGID_22_);}
	.st11{clip-path:url(#SVGID_24_);fill:#33C8AF;}
	.st12{clip-path:url(#SVGID_26_);}
	.st13{clip-path:url(#SVGID_28_);fill:#33C8AF;}
	.st14{clip-path:url(#SVGID_30_);fill:none;stroke:#33C8AF;stroke-width:3;stroke-miterlimit:10;}
	.st15{clip-path:url(#SVGID_32_);}
	.st16{clip-path:url(#SVGID_34_);fill:#33C8AF;}
	.st17{clip-path:url(#SVGID_36_);}
	.st18{clip-path:url(#SVGID_38_);fill:#33C8AF;}
	.st19{clip-path:url(#SVGID_40_);}
	.st20{clip-path:url(#SVGID_42_);fill:#33C8AF;}
	.st21{clip-path:url(#SVGID_44_);fill:none;stroke:#33C8AF;stroke-width:3;stroke-miterlimit:10;}
	.st22{clip-path:url(#SVGID_44_);fill:none;stroke:#2D9684;stroke-width:3;stroke-miterlimit:10;}
	.st23{clip-path:url(#SVGID_46_);}
	.st24{clip-path:url(#SVGID_48_);fill:#33C8AF;}
	.st25{clip-path:url(#SVGID_50_);}
	.st26{clip-path:url(#SVGID_52_);fill:#33C8AF;}
	.st27{clip-path:url(#SVGID_54_);fill:none;stroke:#33C8AF;stroke-width:3;stroke-miterlimit:10;}
	.st28{clip-path:url(#SVGID_56_);}
	.st29{clip-path:url(#SVGID_58_);fill:#33C8AF;}
	.st30{clip-path:url(#SVGID_60_);fill:none;stroke:#21A58F;stroke-width:3;stroke-miterlimit:10;}
	.st31{clip-path:url(#SVGID_60_);fill:none;stroke:#33C8AF;stroke-width:3;stroke-miterlimit:10;}
	.st32{clip-path:url(#SVGID_62_);}
	.st33{clip-path:url(#SVGID_64_);fill:#2D9684;}
	.st34{clip-path:url(#SVGID_66_);}
	.st35{clip-path:url(#SVGID_68_);fill:#2D9684;}
	.st36{clip-path:url(#SVGID_70_);}
	.st37{clip-path:url(#SVGID_72_);fill:#2D9684;}
</style>
<title>Slice 2</title>
<desc>Created with Sketch.</desc>
<g>
	<defs>
		<rect id="SVGID_1_" x="-987" width="1200" height="330"/>
	</defs>
	<clipPath id="SVGID_2_">
		<use xlink:href="#SVGID_1_"  style="overflow:visible;"/>
	</clipPath>
	<g class="st0">
		<g>
			<defs>
				<rect id="SVGID_3_" x="3" width="210" height="265"/>
			</defs>
			<clipPath id="SVGID_4_">
				<use xlink:href="#SVGID_3_"  style="overflow:visible;"/>
			</clipPath>
			<g class="st1">
				<defs>
					<rect id="SVGID_5_" x="3" width="210" height="265"/>
				</defs>
				<clipPath id="SVGID_6_">
					<use xlink:href="#SVGID_5_"  style="overflow:visible;"/>
				</clipPath>
				<line class="st2" x1="298" y1="-84" x2="138" y2="76"/>
				<circle class="st2" cx="133" cy="80" r="7"/>
			</g>
			<g class="st1">
				<defs>
					<path id="SVGID_7_" d="M134.5,125.6c-2.1,0-3.8,1.8-3.8,3.9c0,2.1,1.7,3.8,3.8,3.8c2.1,0,3.9-1.7,3.9-3.8
						C138.4,127.4,136.6,125.6,134.5,125.6z M143.1,129.5c0-4.8-3.9-8.6-8.6-8.6c-4.7,0-8.6,3.9-8.6,8.6c0,4.8,3.9,8.6,8.6,8.6
						C139.2,138.2,143.1,134.3,143.1,129.5z M152,129.5c0,0-7,12.3-17.5,12.3c-10.5,0-17.5-12.3-17.5-12.3s7-12.3,17.5-12.3
						C145,117.2,152,129.5,152,129.5z"/>
				</defs>
				<clipPath id="SVGID_8_">
					<use xlink:href="#SVGID_7_"  style="overflow:visible;"/>
				</clipPath>
				<g class="st3">
					<defs>
						<rect id="SVGID_9_" x="3" width="210" height="265"/>
					</defs>
					<clipPath id="SVGID_10_">
						<use xlink:href="#SVGID_9_"  style="overflow:visible;"/>
					</clipPath>
					<rect x="112" y="112.2" class="st4" width="45" height="34.6"/>
				</g>
			</g>
			<g class="st1">
				<defs>
					<path id="SVGID_11_" d="M42.9,86.4c1.9,1.4,4.3,2.2,7,1.9c4.5-0.5,8.1-4.1,8.5-8.5c0.3-2.6-0.5-5.1-1.9-7
						c-0.1-0.1-0.1-0.4,0-0.5l0.7-0.7c0.1-0.1,0.4-0.1,0.6,0c4.1,5.2,3,13.2-3.3,16.9c-0.9,0.5-1.8,0.9-2.7,1.1
						c-3.6,0.9-7.2,0.1-9.9-2.1c-0.2-0.1-0.2-0.4,0-0.6l0.6-0.7C42.5,86.2,42.7,86.2,42.9,86.4z M58.1,88c5.1-5.1,5.1-13.5,0-18.7
						c-0.4-0.4-0.9-0.4-1.3,0L55.2,71c-0.1,0.1-0.3,0.1-0.5,0c-1.9-1.4-4.3-2.2-7-1.9c-4.5,0.5-8.1,4.1-8.6,8.6
						c-0.3,2.6,0.5,5.1,1.9,7c0.1,0.1,0.1,0.4,0,0.5l-1.6,1.6c-0.2,0.2-0.3,0.4-0.3,0.7c0,0.3,0.1,0.5,0.3,0.7c2.2,2.2,5,3.5,8,3.8
						c0.2,0,0.3,0.2,0.3,0.4v1.3c0,0.2-0.1,0.3-0.3,0.4c-1.9,0.2-3.3,0.9-3.3,1.8c0,1,2.1,1.8,4.6,1.8c2.5,0,4.6-0.8,4.6-1.8
						c0-0.8-1.4-1.5-3.3-1.8c-0.2,0-0.3-0.2-0.3-0.4v-1.3c0-0.2,0.1-0.4,0.3-0.4C53.1,91.6,55.9,90.2,58.1,88z"/>
				</defs>
				<clipPath id="SVGID_12_">
					<use xlink:href="#SVGID_11_"  style="overflow:visible;"/>
				</clipPath>
				<g class="st5">
					<defs>
						<rect id="SVGID_13_" x="3" width="210" height="265"/>
					</defs>
					<clipPath id="SVGID_14_">
						<use xlink:href="#SVGID_13_"  style="overflow:visible;"/>
					</clipPath>
					<rect x="34.1" y="64" class="st6" width="32.9" height="38.6"/>
				</g>
			</g>
			<g class="st1">
				<defs>
					<rect id="SVGID_15_" x="3" width="210" height="265"/>
				</defs>
				<clipPath id="SVGID_16_">
					<use xlink:href="#SVGID_15_"  style="overflow:visible;"/>
				</clipPath>
				<path class="st7" d="M11.6,214.9L79,146.2c0,0,10.2-11.7,21.2-1.7s0,20.8,0,20.8l-17.9,18.4c0,0-11.2,10.6,0,21.3
					c11.2,10.7,24.1-2.4,24.1-2.4L233.6,74.9"/>
			</g>
			<g class="st1">
				<defs>
					<rect id="SVGID_17_" x="3" y="213" width="11" height="11"/>
				</defs>
				<clipPath id="SVGID_18_">
					<use xlink:href="#SVGID_17_"  style="overflow:visible;"/>
				</clipPath>
				<g class="st8">
					<defs>
						<rect id="SVGID_19_" x="3" width="210" height="265"/>
					</defs>
					<clipPath id="SVGID_20_">
						<use xlink:href="#SVGID_19_"  style="overflow:visible;"/>
					</clipPath>
					<rect x="3" y="213" class="st9" width="11" height="11"/>
				</g>
			</g>
			<g class="st1">
				<defs>
					<circle id="SVGID_21_" cx="180" cy="98" r="6"/>
				</defs>
				<clipPath id="SVGID_22_">
					<use xlink:href="#SVGID_21_"  style="overflow:visible;"/>
				</clipPath>
				<g class="st10">
					<defs>
						<rect id="SVGID_23_" x="3" width="210" height="265"/>
					</defs>
					<clipPath id="SVGID_24_">
						<use xlink:href="#SVGID_23_"  style="overflow:visible;"/>
					</clipPath>
					<rect x="169" y="87" class="st11" width="22" height="22"/>
				</g>
			</g>
			<g class="st1">
				<defs>
					<circle id="SVGID_25_" cx="197.5" cy="254.5" r="5.5"/>
				</defs>
				<clipPath id="SVGID_26_">
					<use xlink:href="#SVGID_25_"  style="overflow:visible;"/>
				</clipPath>
				<g class="st12">
					<defs>
						<rect id="SVGID_27_" x="3" width="210" height="265"/>
					</defs>
					<clipPath id="SVGID_28_">
						<use xlink:href="#SVGID_27_"  style="overflow:visible;"/>
					</clipPath>
					<rect x="187" y="244" class="st13" width="21" height="21"/>
				</g>
			</g>
			<g class="st1">
				<defs>
					<rect id="SVGID_29_" x="3" width="210" height="265"/>
				</defs>
				<clipPath id="SVGID_30_">
					<use xlink:href="#SVGID_29_"  style="overflow:visible;"/>
				</clipPath>
				<circle class="st14" cx="190" cy="70" r="11"/>
			</g>
			<g class="st1">
				<defs>
					<circle id="SVGID_31_" cx="85.5" cy="40.5" r="3.5"/>
				</defs>
				<clipPath id="SVGID_32_">
					<use xlink:href="#SVGID_31_"  style="overflow:visible;"/>
				</clipPath>
				<g class="st15">
					<defs>
						<rect id="SVGID_33_" x="3" width="210" height="265"/>
					</defs>
					<clipPath id="SVGID_34_">
						<use xlink:href="#SVGID_33_"  style="overflow:visible;"/>
					</clipPath>
					<rect x="77" y="32" class="st16" width="17" height="17"/>
				</g>
			</g>
			<g class="st1">
				<defs>
					<circle id="SVGID_35_" cx="75.5" cy="50.5" r="3.5"/>
				</defs>
				<clipPath id="SVGID_36_">
					<use xlink:href="#SVGID_35_"  style="overflow:visible;"/>
				</clipPath>
				<g class="st17">
					<defs>
						<rect id="SVGID_37_" x="3" width="210" height="265"/>
					</defs>
					<clipPath id="SVGID_38_">
						<use xlink:href="#SVGID_37_"  style="overflow:visible;"/>
					</clipPath>
					<rect x="67" y="42" class="st18" width="17" height="17"/>
				</g>
			</g>
			<g class="st1">
				<defs>
					<circle id="SVGID_39_" cx="65.5" cy="60.5" r="3.5"/>
				</defs>
				<clipPath id="SVGID_40_">
					<use xlink:href="#SVGID_39_"  style="overflow:visible;"/>
				</clipPath>
				<g class="st19">
					<defs>
						<rect id="SVGID_41_" x="3" width="210" height="265"/>
					</defs>
					<clipPath id="SVGID_42_">
						<use xlink:href="#SVGID_41_"  style="overflow:visible;"/>
					</clipPath>
					<rect x="57" y="52" class="st20" width="17" height="17"/>
				</g>
			</g>
			<g class="st1">
				<defs>
					<rect id="SVGID_43_" x="3" width="210" height="265"/>
				</defs>
				<clipPath id="SVGID_44_">
					<use xlink:href="#SVGID_43_"  style="overflow:visible;"/>
				</clipPath>
				<line class="st21" x1="87.5" y1="38.4" x2="135.7" y2="-9.9"/>
				<line class="st22" x1="118" y1="240.3" x2="241.8" y2="120"/>
			</g>
			<g class="st1">
				<defs>
					<path id="SVGID_45_" d="M108.8,109c-2.1,0-3.8,1.8-3.8,3.9c0,2.1,1.7,3.8,3.8,3.8c2.1,0,3.9-1.7,3.9-3.8
						C112.7,110.8,110.9,109,108.8,109z"/>
				</defs>
				<clipPath id="SVGID_46_">
					<use xlink:href="#SVGID_45_"  style="overflow:visible;"/>
				</clipPath>
				<g class="st23">
					<defs>
						<rect id="SVGID_47_" x="3" width="210" height="265"/>
					</defs>
					<clipPath id="SVGID_48_">
						<use xlink:href="#SVGID_47_"  style="overflow:visible;"/>
					</clipPath>
					<rect x="100" y="104" class="st24" width="17.7" height="17.7"/>
				</g>
			</g>
			<g class="st1">
				<defs>
					<path id="SVGID_49_" d="M168.9,76c-1.6,0-3,1.4-3,3c0,1.6,1.3,3,3,3c1.6,0,3-1.3,3-3C171.9,77.4,170.5,76,168.9,76z"/>
				</defs>
				<clipPath id="SVGID_50_">
					<use xlink:href="#SVGID_49_"  style="overflow:visible;"/>
				</clipPath>
				<g class="st25">
					<defs>
						<rect id="SVGID_51_" x="3" width="210" height="265"/>
					</defs>
					<clipPath id="SVGID_52_">
						<use xlink:href="#SVGID_51_"  style="overflow:visible;"/>
					</clipPath>
					<rect x="161" y="71" class="st26" width="15.9" height="16"/>
				</g>
			</g>
			<g class="st1">
				<defs>
					<rect id="SVGID_53_" x="3" width="210" height="265"/>
				</defs>
				<clipPath id="SVGID_54_">
					<use xlink:href="#SVGID_53_"  style="overflow:visible;"/>
				</clipPath>
				<line class="st27" x1="172" y1="239.2" x2="239.4" y2="174"/>
			</g>
			<g class="st1">
				<defs>
					<path id="SVGID_55_" d="M163.3,240.3l7.2,7.2c0.4,0.4,1.1,0.4,1.5,0c0.4-0.4,0.4-1.1,0-1.5l-7.2-7.2c-0.4-0.4-1.1-0.4-1.5,0
						C162.9,239.2,162.9,239.9,163.3,240.3z M166.7,238.6l5.6,5.6c0.4,0.4,1.1,0.4,1.5,0c0.4-0.4,0.4-1.1,0-1.5l-5.6-5.6
						c-0.4-0.4-1.1-0.4-1.5,0C166.2,237.5,166.2,238.2,166.7,238.6z M162.2,241.7l2.7,2.7l-4,4h-6.7c-0.6,0-1.2,0.5-1.2,1.2
						c0,0.6,0.5,1.2,1.2,1.2h6l0,6c0,0.6,0.5,1.2,1.2,1.2c0.6,0,1.2-0.5,1.2-1.2l0-6.7l4-4l2.7,2.7c-1.3,1.5-2,3.4-2.1,5.5
						c-0.1,3.2-1.7,6.2-4.4,8.1c-3.4,2.4-8,2.4-11.4,0.1c-2.6-1.7-4.2-4.5-4.5-7.5c-0.3-3,0.8-6,2.9-8.2c1.8-1.8,4.3-2.9,6.9-3
						C158.8,243.7,160.7,243,162.2,241.7z"/>
				</defs>
				<clipPath id="SVGID_56_">
					<use xlink:href="#SVGID_55_"  style="overflow:visible;"/>
				</clipPath>
				<g class="st28">
					<defs>
						<rect id="SVGID_57_" x="3" width="210" height="265"/>
					</defs>
					<clipPath id="SVGID_58_">
						<use xlink:href="#SVGID_57_"  style="overflow:visible;"/>
					</clipPath>

						<rect x="140.3" y="235.3" transform="matrix(0.7071 -0.7071 0.7071 0.7071 -130.1616 186.7619)" class="st29" width="40" height="30.3"/>
				</g>
			</g>
			<g class="st1">
				<defs>
					<rect id="SVGID_59_" x="3" width="210" height="265"/>
				</defs>
				<clipPath id="SVGID_60_">
					<use xlink:href="#SVGID_59_"  style="overflow:visible;"/>
				</clipPath>
				<line class="st30" x1="187.9" y1="-9.1" x2="27.9" y2="151"/>
				<circle class="st30" cx="23" cy="155" r="7"/>
				<path class="st31" d="M59,23c2.5,2.2,4,5.4,4,9c0,6.6-5.4,12-12,12s-12-5.4-12-12c0-3.6,1.6-6.8,4-9l0,0l8-8L59,23L59,23z"/>
				<line class="st31" x1="51" y1="15.4" x2="81.4" y2="-15"/>
				<line class="st31" x1="51" y1="14.9" x2="27.7" y2="-8.5"/>
			</g>
			<g class="st1">
				<defs>
					<circle id="SVGID_61_" cx="116.5" cy="241.5" r="3.5"/>
				</defs>
				<clipPath id="SVGID_62_">
					<use xlink:href="#SVGID_61_"  style="overflow:visible;"/>
				</clipPath>
				<g class="st32">
					<defs>
						<rect id="SVGID_63_" x="3" width="210" height="265"/>
					</defs>
					<clipPath id="SVGID_64_">
						<use xlink:href="#SVGID_63_"  style="overflow:visible;"/>
					</clipPath>
					<rect x="108" y="233" class="st33" width="17" height="17"/>
				</g>
			</g>
			<g class="st1">
				<defs>
					<circle id="SVGID_65_" cx="106.5" cy="251.5" r="3.5"/>
				</defs>
				<clipPath id="SVGID_66_">
					<use xlink:href="#SVGID_65_"  style="overflow:visible;"/>
				</clipPath>
				<g class="st34">
					<defs>
						<rect id="SVGID_67_" x="3" width="210" height="265"/>
					</defs>
					<clipPath id="SVGID_68_">
						<use xlink:href="#SVGID_67_"  style="overflow:visible;"/>
					</clipPath>
					<rect x="98" y="243" class="st35" width="17" height="17"/>
				</g>
			</g>
			<g class="st1">
				<defs>
					<circle id="SVGID_69_" cx="96.5" cy="261.5" r="3.5"/>
				</defs>
				<clipPath id="SVGID_70_">
					<use xlink:href="#SVGID_69_"  style="overflow:visible;"/>
				</clipPath>
				<g class="st36">
					<defs>
						<rect id="SVGID_71_" x="3" width="210" height="265"/>
					</defs>
					<clipPath id="SVGID_72_">
						<use xlink:href="#SVGID_71_"  style="overflow:visible;"/>
					</clipPath>
					<rect x="88" y="253" class="st37" width="17" height="17"/>
				</g>
			</g>
		</g>
	</g>
</g>
</svg>
